# xmcd CD database file
#
# Track frame offsets:
#	183
#	13215
#	31608
#	43180
#	54945
#	66438
#	76633
#	90030
#	100855
#	121208
#	136048
#	149405
#	163403
#	178423
#
# Disc length: 2512 seconds
#
# Revision: 0
# Processed by: cddbd v1.4PL0 Copyright (c) Steve Scherf et al.
# Submitted via: CDex 1.40Release
#
DISCID=b209ce0e
DTITLE=Kenny Rogers - Country Star Collection Disc 2
DYEAR=1900
DGENRE=Country
TTITLE0=Ruby (Don't Take Your Love To Town)
TTITLE1=The King Of Oak Street
TTITLE2=Girl Get A Hold On Yourself
TTITLE3=I Just Wanna Give My Love To You
TTITLE4=Me and Bobby McGee
TTITLE5=A New Design
TTITLE6=But You Know That I Love You
TTITLE7=Trying Just As Hard
TTITLE8=Lay It Down
TTITLE9=All God's Lonely Children
TTITLE10=Sleep Comes Easy
TTITLE11=Molly
TTITLE12=Tell It All Brother
TTITLE13=Where Does Rosie Go
EXTD=ID3G: 2
EXTT0=
EXTT1=
EXTT2=
EXTT3=
EXTT4=
EXTT5=
EXTT6=
EXTT7=
EXTT8=
EXTT9=
EXTT10=
EXTT11=
EXTT12=
EXTT13=
PLAYORDER=
